<svg xmlns="http://www.w3.org/2000/svg" width="469" height="157" viewBox="0 0 469 157">
  <path fill="#1A1A1A" fill-rule="evenodd" d="M118.48,586.928 L72.976,586.928 L22,438.032 L64.912,438.032 L96.304,539.696 L96.88,539.696 L128.272,438.032 L168.88,438.032 L118.48,586.928 Z M286.096,496.496 C284.17599,486.127948 280.768024,478.256027 275.872,472.88 C270.975976,467.503973 263.53605,464.816 253.552,464.816 C247.023967,464.816 241.600022,465.919989 237.28,468.128 C232.959978,470.336011 229.504013,473.071984 226.912,476.336 C224.319987,479.600016 222.496005,483.055982 221.44,486.704 C220.383995,490.352018 219.760001,493.615986 219.568,496.496 L286.096,496.496 Z M219.568,522.416 C220.144003,535.664066 223.503969,545.26397 229.648,551.216 C235.792031,557.16803 244.623942,560.144 256.144,560.144 C264.400041,560.144 271.50397,558.080021 277.456,553.952 C283.40803,549.823979 287.055993,545.456023 288.4,540.848 L324.4,540.848 C318.639971,558.704089 309.80806,571.471962 297.904,579.152 C285.99994,586.832038 271.600084,590.672 254.704,590.672 C242.991941,590.672 232.432047,588.800019 223.024,585.056 C213.615953,581.311981 205.648033,575.984035 199.12,569.072 C192.591967,562.159965 187.552018,553.904048 184,544.304 C180.447982,534.703952 178.672,524.144058 178.672,512.624 C178.672,501.487944 180.495982,491.120048 184.144,481.52 C187.792018,471.919952 192.975966,463.616035 199.696,456.608 C206.416034,449.599965 214.431953,444.08002 223.744,440.048 C233.056047,436.01598 243.375943,434 254.704,434 C267.376063,434 278.415953,436.447976 287.824,441.344 C297.232047,446.240024 304.95997,452.815959 311.008,461.072 C317.05603,469.328041 321.423987,478.735947 324.112,489.296 C326.800013,499.856053 327.760004,510.895942 326.992,522.416 L219.568,522.416 Z M389.2,508.592 L340.24,438.032 L386.896,438.032 L413.104,476.912 L439.024,438.032 L484.24,438.032 L435.28,507.728 L490.288,586.928 L443.632,586.928 L412.528,539.984 L381.424,586.928 L335.632,586.928 L389.2,508.592 Z" transform="translate(-22 -434)"/>
</svg>
